<svg xmlns="http://www.w3.org/2000/svg" width="327.787" height="127.032" viewBox="0 0 327.787 127.032">
  <g id="Group_651" data-name="Group 651" transform="translate(-527.763 -428.973)">
    <g id="Group_78" data-name="Group 78">
      <g id="Group_74" data-name="Group 74">
        <circle id="Ellipse_18" data-name="Ellipse 18" cx="3.965" cy="3.965" r="3.965" transform="translate(585.693 474.292)" fill="#28885b"/>
        <circle id="Ellipse_19" data-name="Ellipse 19" cx="3.568" cy="3.568" r="3.568" transform="translate(586.089 464.877)" fill="#28885b"/>
        <circle id="Ellipse_20" data-name="Ellipse 20" cx="3.122" cy="3.122" r="3.122" transform="translate(586.535 455.907)" fill="#28885b"/>
        <circle id="Ellipse_21" data-name="Ellipse 21" cx="2.577" cy="2.577" r="2.577" transform="translate(587.081 446.838)" fill="#28885b"/>
        <circle id="Ellipse_22" data-name="Ellipse 22" cx="2.156" cy="2.156" r="2.156" transform="translate(587.502 438.191)" fill="#28885b"/>
        <circle id="Ellipse_23" data-name="Ellipse 23" cx="1.858" cy="1.858" r="1.858" transform="translate(587.799 428.973)" fill="#28885b"/>
      </g>
      <g id="Group_75" data-name="Group 75">
        <circle id="Ellipse_24" data-name="Ellipse 24" cx="3.965" cy="3.965" r="3.965" transform="translate(575.722 478.262)" fill="#28885b"/>
        <circle id="Ellipse_25" data-name="Ellipse 25" cx="3.568" cy="3.568" r="3.568" transform="translate(569.101 471.799)" fill="#28885b"/>
        <circle id="Ellipse_26" data-name="Ellipse 26" cx="3.122" cy="3.122" r="3.122" transform="translate(562.814 465.664)" fill="#28885b"/>
        <circle id="Ellipse_27" data-name="Ellipse 27" cx="2.577" cy="2.577" r="2.577" transform="translate(556.483 459.489)" fill="#28885b"/>
        <circle id="Ellipse_28" data-name="Ellipse 28" cx="2.156" cy="2.156" r="2.156" transform="translate(550.419 453.571)" fill="#28885b"/>
        <circle id="Ellipse_29" data-name="Ellipse 29" cx="1.858" cy="1.858" r="1.858" transform="translate(543.912 447.218)" fill="#28885b"/>
      </g>
      <g id="Group_76" data-name="Group 76">
        <circle id="Ellipse_30" data-name="Ellipse 30" cx="2.814" cy="2.814" r="2.814" transform="translate(578.023 467.316)" fill="#28885b"/>
        <circle id="Ellipse_31" data-name="Ellipse 31" cx="2.577" cy="2.577" r="2.577" transform="translate(575.138 459.489)" fill="#28885b"/>
        <circle id="Ellipse_32" data-name="Ellipse 32" cx="2.237" cy="2.237" r="2.237" transform="translate(572.901 450.512)" fill="#28885b"/>
        <circle id="Ellipse_33" data-name="Ellipse 33" cx="1.635" cy="1.635" r="1.635" transform="translate(569.835 442.137)" fill="#28885b"/>
      </g>
      <g id="Group_77" data-name="Group 77">
        <circle id="Ellipse_34" data-name="Ellipse 34" cx="2.814" cy="2.814" r="2.814" transform="translate(565.841 479.949)" fill="#28885b"/>
        <circle id="Ellipse_35" data-name="Ellipse 35" cx="2.577" cy="2.577" r="2.577" transform="translate(558.09 476.873)" fill="#28885b"/>
        <circle id="Ellipse_36" data-name="Ellipse 36" cx="2.237" cy="2.237" r="2.237" transform="translate(549.913 472.641)" fill="#28885b"/>
        <circle id="Ellipse_37" data-name="Ellipse 37" cx="1.635" cy="1.635" r="1.635" transform="translate(541.491 469.693)" fill="#28885b"/>
      </g>
    </g>
    <g id="Group_79" data-name="Group 79">
      <circle id="Ellipse_38" data-name="Ellipse 38" cx="3.965" cy="3.965" r="3.965" transform="translate(573.082 488.525)" fill="#28885b"/>
      <circle id="Ellipse_39" data-name="Ellipse 39" cx="3.568" cy="3.568" r="3.568" transform="translate(563.667 488.921)" fill="#28885b"/>
      <circle id="Ellipse_40" data-name="Ellipse 40" cx="3.122" cy="3.122" r="3.122" transform="translate(554.697 489.367)" fill="#28885b"/>
      <circle id="Ellipse_41" data-name="Ellipse 41" cx="2.577" cy="2.577" r="2.577" transform="translate(545.628 489.913)" fill="#28885b"/>
      <circle id="Ellipse_42" data-name="Ellipse 42" cx="2.156" cy="2.156" r="2.156" transform="translate(536.981 490.334)" fill="#28885b"/>
      <circle id="Ellipse_43" data-name="Ellipse 43" cx="1.858" cy="1.858" r="1.858" transform="translate(527.763 490.631)" fill="#28885b"/>
    </g>
    <g id="Group_84" data-name="Group 84">
      <g id="Group_80" data-name="Group 80">
        <circle id="Ellipse_44" data-name="Ellipse 44" cx="3.965" cy="3.965" r="3.965" transform="translate(585.693 502.757)" fill="#28885b"/>
        <circle id="Ellipse_45" data-name="Ellipse 45" cx="3.568" cy="3.568" r="3.568" transform="translate(586.089 512.966)" fill="#28885b"/>
        <circle id="Ellipse_46" data-name="Ellipse 46" cx="3.122" cy="3.122" r="3.122" transform="translate(586.535 522.827)" fill="#28885b"/>
        <circle id="Ellipse_47" data-name="Ellipse 47" cx="2.577" cy="2.577" r="2.577" transform="translate(587.081 532.986)" fill="#28885b"/>
        <circle id="Ellipse_48" data-name="Ellipse 48" cx="2.156" cy="2.156" r="2.156" transform="translate(587.502 542.477)" fill="#28885b"/>
        <circle id="Ellipse_49" data-name="Ellipse 49" cx="1.858" cy="1.858" r="1.858" transform="translate(587.799 552.289)" fill="#28885b"/>
      </g>
      <g id="Group_81" data-name="Group 81">
        <circle id="Ellipse_50" data-name="Ellipse 50" cx="3.965" cy="3.965" r="3.965" transform="translate(575.722 498.788)" fill="#28885b"/>
        <circle id="Ellipse_51" data-name="Ellipse 51" cx="3.568" cy="3.568" r="3.568" transform="translate(569.101 506.043)" fill="#28885b"/>
        <circle id="Ellipse_52" data-name="Ellipse 52" cx="3.122" cy="3.122" r="3.122" transform="translate(562.814 513.07)" fill="#28885b"/>
        <circle id="Ellipse_53" data-name="Ellipse 53" cx="2.577" cy="2.577" r="2.577" transform="translate(556.483 520.336)" fill="#28885b"/>
        <circle id="Ellipse_54" data-name="Ellipse 54" cx="2.156" cy="2.156" r="2.156" transform="translate(550.419 527.096)" fill="#28885b"/>
        <circle id="Ellipse_55" data-name="Ellipse 55" cx="1.858" cy="1.858" r="1.858" transform="translate(543.912 534.044)" fill="#28885b"/>
      </g>
      <g id="Group_82" data-name="Group 82">
        <circle id="Ellipse_56" data-name="Ellipse 56" cx="2.814" cy="2.814" r="2.814" transform="translate(578.023 512.035)" fill="#28885b"/>
        <circle id="Ellipse_57" data-name="Ellipse 57" cx="2.577" cy="2.577" r="2.577" transform="translate(575.138 520.336)" fill="#28885b"/>
        <circle id="Ellipse_58" data-name="Ellipse 58" cx="2.237" cy="2.237" r="2.237" transform="translate(572.901 529.992)" fill="#28885b"/>
        <circle id="Ellipse_59" data-name="Ellipse 59" cx="1.635" cy="1.635" r="1.635" transform="translate(569.835 539.571)" fill="#28885b"/>
      </g>
      <g id="Group_83" data-name="Group 83">
        <circle id="Ellipse_60" data-name="Ellipse 60" cx="2.814" cy="2.814" r="2.814" transform="translate(565.841 499.401)" fill="#28885b"/>
        <circle id="Ellipse_61" data-name="Ellipse 61" cx="2.577" cy="2.577" r="2.577" transform="translate(558.09 502.951)" fill="#28885b"/>
        <circle id="Ellipse_62" data-name="Ellipse 62" cx="2.237" cy="2.237" r="2.237" transform="translate(549.913 507.863)" fill="#28885b"/>
        <circle id="Ellipse_63" data-name="Ellipse 63" cx="1.635" cy="1.635" r="1.635" transform="translate(541.491 512.014)" fill="#28885b"/>
      </g>
    </g>
    <g id="Group_651-2" data-name="Group 651">
      <path id="Path_485" data-name="Path 485" d="M615.933,503.326l-6.217-17.9H609.6q.249,3.988.249,7.478v10.425h-3.182V481.889h4.941l5.954,17.053h.087l6.13-17.053h4.956v21.437h-3.373v-10.6q0-1.6.081-4.164t.14-3.109h-.118l-6.437,17.874Z"/>
      <path id="Path_486" data-name="Path 486" d="M645.15,503.326l-.484-2.126h-.176a4.894,4.894,0,0,1-2.046,1.775,6.851,6.851,0,0,1-3.027.644,5.941,5.941,0,0,1-4.4-1.466,6.076,6.076,0,0,1-1.452-4.443v-10.6h3.475v10a4.341,4.341,0,0,0,.762,2.793,2.914,2.914,0,0,0,2.39.93,3.813,3.813,0,0,0,3.19-1.3,7.157,7.157,0,0,0,1.019-4.348v-8.08h3.46v16.217Z"/>
      <path id="Path_487" data-name="Path 487" d="M663.369,498.708a4.243,4.243,0,0,1-1.73,3.643,8.291,8.291,0,0,1-4.956,1.268,11.708,11.708,0,0,1-5.206-.982v-2.976a12.792,12.792,0,0,0,5.323,1.319q3.182,0,3.181-1.92a1.521,1.521,0,0,0-.351-1.026,4.14,4.14,0,0,0-1.159-.851,19.655,19.655,0,0,0-2.243-1,10.4,10.4,0,0,1-3.791-2.17,4.021,4.021,0,0,1-.989-2.816,3.7,3.7,0,0,1,1.678-3.233,7.975,7.975,0,0,1,4.568-1.151,12.939,12.939,0,0,1,5.411,1.158l-1.114,2.6a12.022,12.022,0,0,0-4.414-1.085q-2.727,0-2.727,1.554a1.56,1.56,0,0,0,.711,1.29,15.613,15.613,0,0,0,3.1,1.452,14.127,14.127,0,0,1,2.918,1.423,4.231,4.231,0,0,1,1.349,1.488A4.307,4.307,0,0,1,663.369,498.708Z"/>
      <path id="Path_488" data-name="Path 488" d="M673.875,503.619a7.847,7.847,0,0,1-5.917-2.206,8.382,8.382,0,0,1-2.133-6.078,9.188,9.188,0,0,1,1.98-6.246,6.837,6.837,0,0,1,5.44-2.273,6.681,6.681,0,0,1,5.073,1.95,7.45,7.45,0,0,1,1.863,5.367v1.862H669.374a5.328,5.328,0,0,0,1.275,3.63,4.447,4.447,0,0,0,3.388,1.267,12.484,12.484,0,0,0,2.675-.271,13.969,13.969,0,0,0,2.662-.9v2.8a10.566,10.566,0,0,1-2.551.85A15.671,15.671,0,0,1,673.875,503.619Zm-.63-14.193a3.461,3.461,0,0,0-2.632,1.041,4.961,4.961,0,0,0-1.181,3.035h7.361a4.493,4.493,0,0,0-.967-3.042A3.313,3.313,0,0,0,673.245,489.426Z"/>
      <path id="Path_489" data-name="Path 489" d="M695.232,503.326l-.483-2.126h-.176a4.894,4.894,0,0,1-2.046,1.775,6.851,6.851,0,0,1-3.027.644,5.941,5.941,0,0,1-4.4-1.466,6.076,6.076,0,0,1-1.452-4.443v-10.6h3.475v10a4.341,4.341,0,0,0,.762,2.793,2.914,2.914,0,0,0,2.39.93,3.813,3.813,0,0,0,3.19-1.3,7.15,7.15,0,0,0,1.019-4.348v-8.08h3.46v16.217Z"/>
      <path id="Path_490" data-name="Path 490" d="M716.224,503.326h-3.461v-10a4.535,4.535,0,0,0-.7-2.778,2.6,2.6,0,0,0-2.2-.917,3.353,3.353,0,0,0-2.924,1.3,7.6,7.6,0,0,0-.932,4.319v8.078h-3.445V487.109h2.7l.484,2.126h.176a4.5,4.5,0,0,1,1.957-1.789,6.321,6.321,0,0,1,2.823-.63q3.738,0,4.956,2.551h.235a4.949,4.949,0,0,1,2.023-1.877,6.429,6.429,0,0,1,2.991-.674,5.45,5.45,0,0,1,4.231,1.466,6.492,6.492,0,0,1,1.327,4.472v10.572h-3.445v-10a4.5,4.5,0,0,0-.712-2.778,2.617,2.617,0,0,0-2.206-.917,3.421,3.421,0,0,0-2.941,1.254,6.462,6.462,0,0,0-.93,3.849Z"/>
    </g>
    <g id="Group_652" data-name="Group 652">
      <path id="Path_491" data-name="Path 491" d="M757.407,503.326V481.889h3.505V500.32h9.076v3.006Z"/>
      <path id="Path_492" data-name="Path 492" d="M772.812,482.813a1.9,1.9,0,0,1,.505-1.422,1.974,1.974,0,0,1,1.445-.5,1.934,1.934,0,0,1,1.415.5,1.907,1.907,0,0,1,.506,1.422,1.876,1.876,0,0,1-.506,1.386,1.917,1.917,0,0,1-1.415.506,1.956,1.956,0,0,1-1.445-.506A1.872,1.872,0,0,1,772.812,482.813Zm3.65,20.513h-3.445V487.109h3.445Z"/>
      <path id="Path_493" data-name="Path 493" d="M789.374,486.816a5.628,5.628,0,0,1,4.729,2.2,12.1,12.1,0,0,1-.022,12.382,6.246,6.246,0,0,1-9.546.007H784.3l-.631,1.921h-2.581V480.511h3.446v5.425q0,.6-.058,1.789t-.088,1.51h.146A5.473,5.473,0,0,1,789.374,486.816Zm-.9,2.815a3.508,3.508,0,0,0-3,1.224,7.139,7.139,0,0,0-.945,4.1v.235a7.582,7.582,0,0,0,.939,4.289,3.489,3.489,0,0,0,3.064,1.326,3.1,3.1,0,0,0,2.778-1.451,7.693,7.693,0,0,0,.947-4.193Q792.263,489.631,788.479,489.631Z"/>
      <path id="Path_494" data-name="Path 494" d="M807.725,486.816a8.349,8.349,0,0,1,1.715.146l-.336,3.212a6.544,6.544,0,0,0-1.526-.176,4.413,4.413,0,0,0-3.35,1.349,4.876,4.876,0,0,0-1.284,3.5v8.475H799.5V487.109h2.7l.454,2.86h.176a6.412,6.412,0,0,1,2.1-2.3A5,5,0,0,1,807.725,486.816Z"/>
      <path id="Path_495" data-name="Path 495" d="M822.293,503.326l-.689-2.258h-.118a6.624,6.624,0,0,1-2.36,2.016,7.465,7.465,0,0,1-3.05.535,5.161,5.161,0,0,1-3.732-1.29A4.829,4.829,0,0,1,811,498.678a4.287,4.287,0,0,1,1.862-3.783,10.747,10.747,0,0,1,5.674-1.393l2.8-.087v-.866a3.278,3.278,0,0,0-.726-2.324,2.961,2.961,0,0,0-2.251-.77,7.78,7.78,0,0,0-2.389.367,18.1,18.1,0,0,0-2.2.865l-1.114-2.463a12,12,0,0,1,2.889-1.049,13.321,13.321,0,0,1,2.962-.359,7.022,7.022,0,0,1,4.671,1.349,5.284,5.284,0,0,1,1.576,4.238v10.923Zm-5.132-2.346a4.271,4.271,0,0,0,3.014-1.048,3.8,3.8,0,0,0,1.136-2.94v-1.408l-2.082.088a7.13,7.13,0,0,0-3.542.814,2.472,2.472,0,0,0-1.107,2.222,2.162,2.162,0,0,0,.646,1.678A2.768,2.768,0,0,0,817.161,500.98Z"/>
      <path id="Path_496" data-name="Path 496" d="M837.491,486.816a8.352,8.352,0,0,1,1.716.146l-.337,3.212a6.53,6.53,0,0,0-1.525-.176,4.417,4.417,0,0,0-3.351,1.349,4.879,4.879,0,0,0-1.283,3.5v8.475h-3.445V487.109h2.7l.454,2.86h.176a6.419,6.419,0,0,1,2.1-2.3A5,5,0,0,1,837.491,486.816Z"/>
      <path id="Path_497" data-name="Path 497" d="M839.449,487.109H843.2l3.3,9.194a17.41,17.41,0,0,1,1,3.7h.117a15.307,15.307,0,0,1,.485-1.958q.351-1.152,3.724-10.932h3.725l-6.937,18.372q-1.89,5.06-6.3,5.059a9.935,9.935,0,0,1-2.229-.249v-2.728a8.024,8.024,0,0,0,1.774.177q2.493,0,3.5-2.888l.6-1.526Z"/>
    </g>
    <g id="Group_653" data-name="Group 653">
      <path id="Path_498" data-name="Path 498" d="M764.928,519.064a2.889,2.889,0,0,1-1.108,2.388,4.588,4.588,0,0,1-2.944.882,9.22,9.22,0,0,1-3.385-.486v-.84a8.563,8.563,0,0,0,3.32.552,3.715,3.715,0,0,0,2.35-.68,2.153,2.153,0,0,0,.869-1.783,2.05,2.05,0,0,0-.288-1.132,2.622,2.622,0,0,0-.938-.819,11.548,11.548,0,0,0-1.911-.8,6.53,6.53,0,0,1-2.549-1.372,2.938,2.938,0,0,1,.354-4.167,4.2,4.2,0,0,1,2.722-.853,7.972,7.972,0,0,1,3.187.643l-.3.724a7.444,7.444,0,0,0-2.866-.626,3.359,3.359,0,0,0-2.125.618,2.016,2.016,0,0,0-.791,1.68,1.936,1.936,0,0,0,1.038,1.865,10.791,10.791,0,0,0,1.894.82,10.183,10.183,0,0,1,2.116.943,3.025,3.025,0,0,1,1.034,1.038A2.842,2.842,0,0,1,764.928,519.064Z"/>
      <path id="Path_499" data-name="Path 499" d="M775.4,522.169h-6.58V510.128h6.58v.774h-5.74v4.555h5.419v.774h-5.419V521.4h5.74Z"/>
      <path id="Path_500" data-name="Path 500" d="M780.318,516.923v5.246h-.839V510.128h2.866a5.4,5.4,0,0,1,3.31.828,2.952,2.952,0,0,1,1.071,2.491,3.257,3.257,0,0,1-.638,2.043,3.554,3.554,0,0,1-1.941,1.194l3.27,5.485h-1l-3.105-5.246Zm0-.725h2.3a3.662,3.662,0,0,0,2.363-.679,2.426,2.426,0,0,0,.84-2.005,2.355,2.355,0,0,0-.823-2,4.5,4.5,0,0,0-2.684-.626h-1.994Z"/>
      <path id="Path_501" data-name="Path 501" d="M797.966,510.128h.914l-4.505,12.041h-.741l-4.488-12.041h.9l3.031,8.2q.691,1.854.931,2.783.164-.618.65-1.918Z"/>
      <path id="Path_502" data-name="Path 502" d="M801.935,522.169V510.128h.839v12.041Z"/>
      <path id="Path_503" data-name="Path 503" d="M812.672,510.713a4.554,4.554,0,0,0-3.567,1.449,5.731,5.731,0,0,0-1.3,3.97,5.946,5.946,0,0,0,1.227,4,4.378,4.378,0,0,0,3.508,1.425,9.5,9.5,0,0,0,2.784-.387v.741a9.113,9.113,0,0,1-2.981.42,5.068,5.068,0,0,1-3.994-1.64,6.644,6.644,0,0,1-1.458-4.579,7.171,7.171,0,0,1,.7-3.236,5.035,5.035,0,0,1,2-2.162,5.91,5.91,0,0,1,3.035-.762,7.287,7.287,0,0,1,3.154.659l-.338.758A6.108,6.108,0,0,0,812.672,510.713Z"/>
      <path id="Path_504" data-name="Path 504" d="M825.938,522.169h-6.58V510.128h6.58v.774H820.2v4.555h5.419v.774H820.2V521.4h5.74Z"/>
      <path id="Path_505" data-name="Path 505" d="M836.66,519.064a2.891,2.891,0,0,1-1.107,2.388,4.593,4.593,0,0,1-2.945.882,9.218,9.218,0,0,1-3.384-.486v-.84a8.558,8.558,0,0,0,3.319.552,3.72,3.72,0,0,0,2.351-.68,2.153,2.153,0,0,0,.869-1.783,2.059,2.059,0,0,0-.288-1.132,2.626,2.626,0,0,0-.939-.819,11.473,11.473,0,0,0-1.911-.8,6.546,6.546,0,0,1-2.549-1.372,2.937,2.937,0,0,1,.355-4.167,4.2,4.2,0,0,1,2.721-.853,7.977,7.977,0,0,1,3.188.643l-.305.724a7.444,7.444,0,0,0-2.866-.626,3.359,3.359,0,0,0-2.125.618,2.019,2.019,0,0,0-.791,1.68,2.2,2.2,0,0,0,.243,1.1,2.229,2.229,0,0,0,.8.769,10.775,10.775,0,0,0,1.895.82,10.233,10.233,0,0,1,2.116.943,3.03,3.03,0,0,1,1.033,1.038A2.83,2.83,0,0,1,836.66,519.064Z"/>
    </g>
    <g id="Group_654" data-name="Group 654">
      <path id="Path_506" data-name="Path 506" d="M734.723,503.326l-.227-1.072h-.055a3.164,3.164,0,0,1-1.124.959,3.425,3.425,0,0,1-1.4.251,2.52,2.52,0,0,1-1.756-.577,2.107,2.107,0,0,1-.636-1.643q0-2.281,3.65-2.392l1.278-.041v-.467a1.907,1.907,0,0,0-.382-1.31,1.567,1.567,0,0,0-1.219-.422,4.97,4.97,0,0,0-2.131.577l-.351-.873a5.354,5.354,0,0,1,1.221-.474,5.3,5.3,0,0,1,1.329-.172,2.869,2.869,0,0,1,2,.6,2.5,2.5,0,0,1,.649,1.918v5.14Zm-2.577-.8a2.317,2.317,0,0,0,1.673-.584,2.16,2.16,0,0,0,.609-1.636v-.68l-1.142.048a4.148,4.148,0,0,0-1.962.423,1.273,1.273,0,0,0-.6,1.165,1.173,1.173,0,0,0,.375.941A1.548,1.548,0,0,0,732.146,502.522Z"/>
      <path id="Path_507" data-name="Path 507" d="M743.5,503.326v-4.872a1.969,1.969,0,0,0-.419-1.375,1.7,1.7,0,0,0-1.312-.454,2.164,2.164,0,0,0-1.733.64,3.227,3.227,0,0,0-.55,2.11v3.951h-1.14v-7.533h.928l.185,1.032h.055a2.325,2.325,0,0,1,.983-.863,3.188,3.188,0,0,1,1.408-.306,2.86,2.86,0,0,1,2.049.657,2.792,2.792,0,0,1,.688,2.1v4.914Z"/>
      <path id="Path_508" data-name="Path 508" d="M752.53,502.316h-.061a2.684,2.684,0,0,1-2.365,1.148,2.8,2.8,0,0,1-2.3-1.011,4.448,4.448,0,0,1-.822-2.872,4.523,4.523,0,0,1,.826-2.894,2.775,2.775,0,0,1,2.295-1.031,2.739,2.739,0,0,1,2.351,1.114h.089l-.048-.543-.027-.53v-3.065h1.14v10.694h-.927Zm-2.282.193a2.076,2.076,0,0,0,1.694-.636,3.21,3.21,0,0,0,.527-2.052v-.24a3.782,3.782,0,0,0-.533-2.286,2.022,2.022,0,0,0-1.7-.683,1.747,1.747,0,0,0-1.536.78,3.887,3.887,0,0,0-.532,2.2,3.722,3.722,0,0,0,.529,2.178A1.79,1.79,0,0,0,750.248,502.509Z"/>
    </g>
    <g id="Group_655" data-name="Group 655">
      <path id="Path_509" data-name="Path 509" d="M633.428,480.641V468.6h.84v12.041Z"/>
      <path id="Path_510" data-name="Path 510" d="M646.938,480.641h-.848l-7.132-10.69h-.066q.1,1.911.1,2.882v7.808h-.807V468.6h.84l7.124,10.674h.049q-.074-1.482-.074-2.816V468.6h.815Z"/>
      <path id="Path_511" data-name="Path 511" d="M657.5,477.537a2.89,2.89,0,0,1-1.108,2.387,4.59,4.59,0,0,1-2.944.882,9.219,9.219,0,0,1-3.385-.486v-.84a8.561,8.561,0,0,0,3.319.552,3.716,3.716,0,0,0,2.351-.68,2.153,2.153,0,0,0,.869-1.783,2.059,2.059,0,0,0-.288-1.132,2.617,2.617,0,0,0-.939-.819,11.555,11.555,0,0,0-1.911-.8,6.532,6.532,0,0,1-2.548-1.372,2.936,2.936,0,0,1,.354-4.167,4.2,4.2,0,0,1,2.722-.853,7.972,7.972,0,0,1,3.187.643l-.3.724a7.449,7.449,0,0,0-2.867-.626,3.363,3.363,0,0,0-2.125.619,2.016,2.016,0,0,0-.791,1.679,2.2,2.2,0,0,0,.243,1.1,2.247,2.247,0,0,0,.795.77,10.823,10.823,0,0,0,1.9.819,10.288,10.288,0,0,1,2.116.943,3.021,3.021,0,0,1,1.033,1.038A2.832,2.832,0,0,1,657.5,477.537Z"/>
      <path id="Path_512" data-name="Path 512" d="M663.689,480.641h-.849v-11.25h-3.912V468.6H667.6v.791h-3.912Z"/>
      <path id="Path_513" data-name="Path 513" d="M669.894,480.641V468.6h.84v12.041Z"/>
      <path id="Path_514" data-name="Path 514" d="M677.788,480.641h-.849v-11.25h-3.912V468.6H681.7v.791h-3.912Z"/>
      <path id="Path_515" data-name="Path 515" d="M692.846,468.6v7.791a4.314,4.314,0,0,1-1.2,3.245,4.6,4.6,0,0,1-3.351,1.17,4.072,4.072,0,0,1-4.44-4.447V468.6h.849v7.791a3.358,3.358,0,0,0,3.689,3.674,3.293,3.293,0,0,0,3.615-3.591V468.6Z"/>
      <path id="Path_516" data-name="Path 516" d="M699.767,480.641h-.849v-11.25h-3.912V468.6h8.673v.791h-3.912Z"/>
      <path id="Path_517" data-name="Path 517" d="M712.553,480.641h-6.58V468.6h6.58v.775h-5.74v4.554h5.419v.775h-5.419v5.163h5.74Z"/>
    </g>
    <g id="Group_656" data-name="Group 656">
      <path id="Path_518" data-name="Path 518" d="M726.206,475.748c0,2.217-1.616,5.079-4.288,5.079a3.014,3.014,0,0,1-2.989-3.308c0-2.6,1.792-5.156,4.275-5.156C725.391,472.363,726.206,474.116,726.206,475.748Zm-6.493,1.711c0,1.547.894,2.719,2.306,2.719,1.847,0,3.4-2.246,3.4-4.448,0-1.066-.505-2.718-2.272-2.718C721.164,473.012,719.713,475.225,719.713,477.459Z"/>
      <path id="Path_519" data-name="Path 519" d="M728,480.642l1.42-7.461h-1.1l.127-.632h1.1l.08-.444a5.342,5.342,0,0,1,1.3-2.937,2.5,2.5,0,0,1,1.678-.684,1.819,1.819,0,0,1,1.02.224l-.231.624a1.9,1.9,0,0,0-.844-.173c-1.31,0-1.888,1.336-2.179,3.006l-.067.384h1.939l-.131.632h-1.939l-1.425,7.461Z"/>
    </g>
  </g>
</svg>
